<?xml version="1.0" encoding="UTF-8"?>
<svg xmlns="http://www.w3.org/2000/svg" width="48" height="48" fill="#4d83fa" viewBox="0 0 48 48" data-library="gosweb_med" data-icon="dispanserizacia" data-color="#4d83fa">
  <path d="M42.3,23.1c0-3.1-2.5-5.6-5.6-5.6s-5.6,2.5-5.6,5.6c0,2.6,1.7,4.8,4.1,5.4v5.9c0,4.1-3.3,7.4-7.4,7.4   s-7.4-3.3-7.4-7.4v-7.6c2.9-0.5,5.2-2.5,6.2-5.5l4-12.1c0.5-1.5,0.2-3-0.6-4.2c-0.9-1.2-2.3-2-3.8-2h-2.3c-0.8,0-1.5,0.7-1.5,1.5   s0.7,1.5,1.5,1.5h2.3c0.6,0,1.1,0.3,1.4,0.7c0.3,0.4,0.4,1,0.2,1.5l-4,12.1c-0.9,2.6-3.1,3.6-4.9,3.6c-1.8,0-4-0.9-4.9-3.6L10,8.4   c-0.2-0.5-0.1-1.1,0.2-1.5c0.3-0.4,0.8-0.7,1.4-0.7H14c0.8,0,1.5-0.7,1.5-1.5S14.8,3.2,14,3.2h-2.3c-1.5,0-2.9,0.7-3.8,2   S6.7,7.9,7.2,9.3l4,12.1c1,2.9,3.3,4.9,6.2,5.5v7.6c0,5.7,4.7,10.4,10.4,10.4s10.4-4.7,10.4-10.4v-5.9   C40.6,27.9,42.3,25.7,42.3,23.1z M36.7,25.8c-1.4,0-2.6-1.2-2.6-2.6s1.2-2.6,2.6-2.6s2.6,1.2,2.6,2.6S38.2,25.8,36.7,25.8z"></path>
</svg>
