<?xml version="1.0" encoding="UTF-8"?>
<svg xmlns="http://www.w3.org/2000/svg" width="48" height="48" fill="#4d83fa" viewBox="0 0 48 48" data-library="gosweb_med" data-icon="vakcinacia" data-color="#4d83fa">
  <path d="M45.5,10.4l-6.9-6.9c-0.6-0.6-1.5-0.6-2.1,0c-0.6,0.6-0.6,1.5,0,2.1l2.5,2.5L35,12l-3.5-3.5c0,0,0,0,0,0   s0,0,0,0l-2.7-2.7c-0.6-0.6-1.5-0.6-2.1,0c-0.6,0.6-0.6,1.5,0,2.1l1.6,1.6l-8,8c0,0,0,0,0,0s0,0,0,0l-5,5c0,0,0,0,0,0c0,0,0,0,0,0   l-5.5,5.5c0,0,0,0,0,0c-0.1,0.1-0.2,0.3-0.3,0.5c0,0,0,0,0,0c-0.1,0.2-0.1,0.3-0.1,0.5c0,0,0,0,0,0c0,0,0,0.1,0,0.1   c0.2,2.2,1,4.2,2.3,5.9L6,40.8c-0.6,0.6-0.6,1.5,0,2.1c0.3,0.3,0.7,0.4,1.1,0.4s0.8-0.1,1.1-0.4l5.6-5.6c1.7,1.3,3.7,2.1,5.9,2.2   c0,0,0.1,0,0.1,0c0.2,0,0.4,0,0.6-0.1c0.1,0,0.1-0.1,0.1-0.1c0.1-0.1,0.2-0.1,0.3-0.2c0,0,0,0,0,0l18.6-18.6l1.6,1.6   c0.3,0.3,0.7,0.4,1.1,0.4s0.8-0.1,1.1-0.4c0.6-0.6,0.6-1.5,0-2.1l-2.7-2.7c0,0,0,0,0,0s0,0,0,0l-3.5-3.5l3.9-3.9l2.5,2.5   c0.3,0.3,0.7,0.4,1.1,0.4s0.8-0.1,1.1-0.4C46,11.9,46,11,45.5,10.4z M19.1,36.5c-1.7-0.3-3.3-1.1-4.4-2.2c0,0,0,0,0-0.1   c0,0,0,0-0.1,0c-1.2-1.2-2-2.7-2.2-4.4l4-4l2.4,2.4c0.3,0.3,0.7,0.4,1.1,0.4s0.8-0.1,1.1-0.4c0.6-0.6,0.6-1.5,0-2.1l-2.4-2.4   l2.9-2.9l2.4,2.4c0.3,0.3,0.7,0.4,1.1,0.4s0.8-0.1,1.1-0.4c0.6-0.6,0.6-1.5,0-2.1l-2.4-2.4l6.9-6.9l6.8,6.8L19.1,36.5z"></path>
</svg>
