<?xml version="1.0" encoding="UTF-8"?>
<svg xmlns="http://www.w3.org/2000/svg" width="24" height="25" fill="#4d83fa" viewBox="0 0 24 25" data-library="gosweb_med" data-icon="palm" data-color="#4d83fa">
  <path d="M20.5,9.2V6.2c0-1.2-1-2.2-2.2-2.2c-0.3,0-0.5,0.1-0.7,0.1V4c0-1.2-1-2.2-2.2-2.2c-0.3,0-0.6,0.1-0.9,0.2   c-0.3-0.8-1.1-1.3-2-1.3c-0.9,0-1.7,0.6-2.1,1.4C10,1.9,9.7,1.8,9.3,1.8c-1.2,0-2.2,1-2.2,2.2l0,10l-3.2-2.3   c-0.7-0.5-1.7-0.5-2.4,0.2c-0.6,0.7-0.7,1.6-0.2,2.4L7.2,22c0.1,0.2,0.4,0.3,0.6,0.3c0.2,0,0.3,0,0.4-0.1c0.3-0.2,0.4-0.7,0.2-1   l-5.8-7.7c-0.1-0.2-0.1-0.3,0-0.4c0.1-0.1,0.2-0.2,0.4,0l4.3,3c0,0,0.1,0,0.1,0.1l0,0c0,0,0,0,0,0c0.1,0.1,0.2,0.1,0.3,0.1   c0,0,0,0,0,0c0,0,0.1,0,0.1,0h0c0,0,0.1,0,0.1,0c0,0,0,0,0,0c0.1,0,0.2,0,0.2-0.1c0,0,0,0,0,0c0.1,0,0.1-0.1,0.2-0.2c0,0,0,0,0,0   c0,0,0,0,0,0c0,0,0.1-0.1,0.1-0.2c0-0.1,0-0.1,0-0.2c0,0,0,0,0-0.1L8.6,4c0-0.4,0.3-0.7,0.7-0.7c0.4,0,0.7,0.3,0.7,0.7v6.8   c0,0.4,0.3,0.8,0.8,0.8c0,0,0,0,0,0s0,0,0,0h0c0.4,0,0.7-0.3,0.8-0.7l0-8c0-0.4,0.3-0.7,0.7-0.7c0.4,0,0.7,0.3,0.7,0.7v8   c0,0.4,0.3,0.8,0.8,0.8c0.2,0,0.4-0.1,0.5-0.2c0.1-0.1,0.2-0.3,0.2-0.5l0-6.8c0-0.4,0.3-0.7,0.7-0.7C15.7,3.2,16,3.6,16,4v6.8   c0,0.4,0.3,0.8,0.8,0.8h0c0.4,0,0.7-0.3,0.8-0.7l0-4.6c0-0.4,0.3-0.7,0.7-0.7c0.4,0,0.7,0.3,0.7,0.7v4.6c0,0,0,0,0,0v10.8   c0,0.4,0.3,0.8,0.8,0.8s0.8-0.3,0.8-0.8L20.5,9.2C20.5,9.2,20.5,9.2,20.5,9.2z"></path>
</svg>
