<?xml version="1.0" encoding="UTF-8"?>
<svg xmlns="http://www.w3.org/2000/svg" width="24" height="25" fill="#4d83fa" viewBox="0 0 24 25" data-library="gosweb_med" data-icon="Tromner" data-color="#4d83fa">
  <path d="M23,8.9l-1.4-2.7c0,0,0-0.1-0.1-0.1c0,0,0-0.1-0.1-0.1l-4.8-4.8c-0.5-0.5-1.2-0.8-1.9-0.8c0,0,0,0,0,0   c-0.7,0-1.4,0.3-1.9,0.8c-0.5,0.5-0.8,1.2-0.8,1.9c0,0.7,0.3,1.4,0.8,1.9l2.3,2.3l-3.9,3.9c-0.6,0.6-1.6,1-2.6,1.3   c-1.2,0.4-2.3,0.7-3.3,1.7l-4.6,4.6c-1.1,1.1-1.1,2.9,0,4c0.5,0.5,1.3,0.8,2,0.8c0.8,0,1.5-0.3,2-0.8l4.6-4.6   c0.9-0.9,1.3-2.1,1.7-3.3c0.3-1,0.6-2,1.3-2.6c0,0,0,0,0,0l3.9-3.9l1.4,1.4c0,0,0.1,0,0.1,0.1c0,0,0.1,0.1,0.1,0.1l2.7,1.4   c0.3,0.1,0.5,0.2,0.8,0.2c0.4,0,0.9-0.2,1.2-0.5C23.2,10.4,23.3,9.6,23,8.9z M9.7,14.4c-0.3,1-0.6,2-1.3,2.6l-4.6,4.6   c-0.5,0.5-1.4,0.5-1.9,0c-0.5-0.5-0.5-1.4,0-1.9l4.6-4.6c0.6-0.6,1.6-1,2.6-1.3c0.3-0.1,0.5-0.2,0.8-0.3C9.9,13.9,9.8,14.2,9.7,14.4   z M21.6,9.9c-0.1,0.1-0.2,0.1-0.3,0l-2.6-1.4L14,3.9c-0.2-0.2-0.3-0.5-0.3-0.8s0.1-0.6,0.3-0.8c0.2-0.2,0.5-0.3,0.8-0.3c0,0,0,0,0,0   c0.3,0,0.6,0.1,0.8,0.3l4.7,4.7l1.4,2.6C21.7,9.7,21.7,9.8,21.6,9.9z"></path>
</svg>
