<?xml version="1.0" encoding="UTF-8"?>
<svg xmlns="http://www.w3.org/2000/svg" width="48" height="48" viewBox="0 0 48 48" fill="#4d83fa" data-library="gosweb_med" data-icon="Dispancerizacia" data-color="#4d83fa">
  <path d="M36.3963 41.0438C36.3963 41.8738 35.7264 42.5438 34.8965 42.5438H33.4467V43.9838C33.4467 44.8138 32.7767 45.4838 31.9468 45.4838C31.1169 45.4838 30.447 44.8138 30.447 43.9838V42.5438H29.0072C28.1773 42.5438 27.5074 41.8738 27.5074 41.0438C27.5074 40.2138 28.1773 39.5438 29.0072 39.5438H30.447V38.1037C30.447 37.2737 31.1169 36.6037 31.9468 36.6037C32.7767 36.6037 33.4467 37.2737 33.4467 38.1037V39.5438H34.8865C35.7264 39.5438 36.3963 40.2138 36.3963 41.0438ZM14.8288 14.9238C14.7989 11.7838 14.7489 7.88375 17.6385 4.02375C17.7685 3.85375 17.9285 3.71375 18.1085 3.61375C21.998 1.46375 26.6275 1.46375 30.507 3.60375C30.697 3.70375 30.857 3.84375 30.977 4.01375C33.8766 7.88375 33.8366 11.7938 33.7966 14.9338C33.7966 15.2638 33.7866 15.5938 33.7866 15.9138C33.7866 22.8538 29.0172 26.4938 24.3077 26.4938C19.5983 26.4938 14.8288 22.8638 14.8288 15.9138C14.8388 15.5938 14.8288 15.2638 14.8288 14.9238ZM30.817 13.6537C26.6475 11.9737 21.998 11.9737 17.8285 13.6537C17.8285 14.0637 17.8285 14.4838 17.8385 14.8938C17.8385 15.2438 17.8485 15.5838 17.8485 15.9238C17.8485 21.1338 21.2081 23.5037 24.3277 23.5037C27.4474 23.5037 30.807 21.1338 30.807 15.9238C30.807 15.5938 30.807 15.2538 30.817 14.9138C30.817 14.4938 30.817 14.0737 30.817 13.6537ZM18.0785 10.3538C22.128 9.04375 26.4975 9.04375 30.547 10.3538C30.287 8.93375 29.7771 7.50375 28.7672 6.08376C25.9475 4.64376 22.6579 4.64376 19.8383 6.08376C18.8484 7.51375 18.3384 8.93375 18.0785 10.3538ZM32.3468 26.5138C31.7669 26.3238 31.1369 26.4937 30.747 26.9537L24.3377 34.3537L17.9285 26.9537C17.5285 26.4937 16.8986 26.3238 16.3187 26.5138C9.12952 28.8938 5 34.0937 5 40.7637V42.7637C5 43.5937 5.66992 44.2637 6.49982 44.2637C7.32973 44.2637 7.99965 43.5937 7.99965 42.7637V40.7637C7.99965 35.7537 11.0193 31.7638 16.3287 29.6938L23.1979 37.6137C23.2179 37.6337 23.2479 37.6538 23.2679 37.6738C23.2779 37.6838 23.2979 37.6937 23.3079 37.7137C23.3678 37.7637 23.4278 37.8237 23.4878 37.8637C23.5078 37.8737 23.5178 37.8837 23.5378 37.8937C23.6078 37.9337 23.6678 37.9737 23.7378 38.0037C23.7678 38.0137 23.7878 38.0238 23.8178 38.0338C23.8878 38.0538 23.9478 38.0838 24.0178 38.0938C24.0778 38.1037 24.1378 38.1037 24.1878 38.1137C24.2277 38.1137 24.2677 38.1238 24.3177 38.1238C24.3377 38.1238 24.3577 38.1137 24.3777 38.1137C24.4577 38.1137 24.5477 38.1038 24.6277 38.0838C24.6777 38.0738 24.7177 38.0538 24.7677 38.0438C24.8177 38.0238 24.8677 38.0138 24.9177 37.9938C24.9677 37.9738 25.0177 37.9437 25.0677 37.9137C25.0976 37.8937 25.1376 37.8737 25.1676 37.8537C25.2176 37.8137 25.2676 37.7738 25.3176 37.7338C25.3376 37.7138 25.3676 37.6937 25.3876 37.6637C25.4076 37.6437 25.4276 37.6337 25.4476 37.6137L32.3168 29.6938C37.6262 31.7638 40.6458 35.7537 40.6458 40.7637V42.7637C40.6458 43.5937 41.3157 44.2637 42.1456 44.2637C42.9756 44.2637 43.6455 43.5937 43.6455 42.7637V40.7637C43.6655 34.0937 39.536 28.9038 32.3468 26.5138Z"></path>
</svg>
