<?xml version="1.0" encoding="UTF-8"?>
<svg xmlns="http://www.w3.org/2000/svg" width="24" height="25" fill="#4d83fa" viewBox="0 0 24 25" data-library="gosweb_med" data-icon="support_walker" data-color="#4d83fa">
  <path d="M18.2,15.6L17.1,6c-0.2-1.4-1.3-2.4-2.7-2.4H8.7c-1.4,0-2.6,1-2.7,2.4L4.4,19.7c0,0.4,0.2,0.8,0.7,0.8   c0,0,0.1,0,0.1,0c0.4,0,0.7-0.3,0.7-0.7l0.9-7.7h9.5l0.4,3.5c-0.9,0.4-1.5,1.3-1.5,2.3c0,1.4,1.1,2.5,2.5,2.5s2.5-1.1,2.5-2.5   C20.1,16.9,19.3,15.9,18.2,15.6z M6.9,10.8l0.5-4.6C7.5,5.6,8,5.1,8.7,5.1h5.7c0.6,0,1.2,0.5,1.2,1.1l0.5,4.6H6.9z M17.6,19.1   c-0.6,0-1-0.4-1-1s0.4-1,1-1s1,0.4,1,1S18.2,19.1,17.6,19.1z"></path>
</svg>
