<?xml version="1.0" encoding="UTF-8"?>
<svg xmlns="http://www.w3.org/2000/svg" width="48" height="48" fill="#4d83fa" viewBox="0 0 48 48" data-library="gosweb_med" data-icon="graphik_priema" data-color="#4d83fa">
  <path d="M36.5,6H34V3.9c0-0.8-0.7-1.5-1.5-1.5S31,3.1,31,3.9V6H17V3.9c0-0.8-0.7-1.5-1.5-1.5S14,3.1,14,3.9V6h-2.5   C8.5,6,6,8.5,6,11.5v25c0,3,2.5,5.5,5.5,5.5H19c0.8,0,1.5-0.7,1.5-1.5S19.8,39,19,39h-7.5C10.1,39,9,37.9,9,36.5v-25   C9,10.1,10.1,9,11.5,9H14v1.9c0,0.8,0.7,1.5,1.5,1.5s1.5-0.7,1.5-1.5V9h14v1.9c0,0.8,0.7,1.5,1.5,1.5s1.5-0.7,1.5-1.5V9h2.5   c1.4,0,2.5,1.1,2.5,2.5V19c0,0.8,0.7,1.5,1.5,1.5S42,19.8,42,19v-7.5C42,8.5,39.5,6,36.5,6z"></path>
  <path d="M31.5,41.9c-5.7,0-10.4-4.7-10.4-10.4s4.7-10.4,10.4-10.4s10.4,4.7,10.4,10.4S37.2,41.9,31.5,41.9z M31.5,23.9   c-4.2,0-7.6,3.4-7.6,7.6s3.4,7.6,7.6,7.6s7.6-3.4,7.6-7.6S35.7,23.9,31.5,23.9z"></path>
  <path d="M34.2,35.6c-0.4,0-0.7-0.1-1-0.4l-2.7-2.7c-0.3-0.3-0.4-0.6-0.4-1v-3.7c0-0.8,0.6-1.4,1.4-1.4s1.4,0.6,1.4,1.4   v3.1l2.3,2.3c0.5,0.5,0.5,1.4,0,2C35,35.5,34.6,35.6,34.2,35.6z"></path>
</svg>
