<?xml version="1.0" encoding="UTF-8"?>
<svg xmlns="http://www.w3.org/2000/svg" width="48" height="48" fill="#4d83fa" viewBox="0 0 48 48" data-library="gosweb_med" data-icon="edinoe_icno" data-color="#4d83fa">
  <path d="M42.5,33.9h-4V19.2c0-7.8-6.3-14.1-14.1-14.1c-7.8,0-14.1,6.3-14.1,14.1v14.7H5.5c-0.8,0-1.5,0.7-1.5,1.5v4   c0,1.9,1.6,3.5,3.5,3.5h32.9c1.9,0,3.5-1.6,3.5-3.5v-4C44,34.6,43.3,33.9,42.5,33.9z M13.2,19.2c0-6.1,5-11.1,11.1-11.1   c6.1,0,11.1,5,11.1,11.1v14.7H13.2V19.2z M41,39.4c0,0.3-0.2,0.5-0.5,0.5H7.5c-0.3,0-0.5-0.2-0.5-0.5v-2.5h4.6c0,0,0,0,0,0h25.3   c0,0,0,0,0,0h4V39.4z"></path>
</svg>
