<?xml version="1.0" encoding="UTF-8"?>
<svg xmlns="http://www.w3.org/2000/svg" width="24" height="25" fill="#4d83fa" viewBox="0 0 24 25" data-library="gosweb_med" data-icon="heart_rate" data-color="#4d83fa">
  <path d="M12,21.1c-0.1,0-0.2,0-0.4-0.1c-1-0.6-4.6-2.6-7.1-5.5c-0.3-0.3-0.2-0.8,0.1-1.1c0.3-0.3,0.8-0.2,1.1,0.1   c2.1,2.5,5,4.3,6.3,5c2-1.1,8.4-5.1,8.4-9.9c0-2.4-1.6-3.7-3.2-4C16,5.3,14.4,5.8,12.4,7c-0.2,0.2-0.6,0.2-0.8,0   C9.6,5.8,8,5.3,6.8,5.5c-1.3,0.3-3,1.3-3.2,3.6c0,0.4-0.4,0.7-0.8,0.7c-0.4,0-0.7-0.4-0.7-0.8c0.2-2.5,2-4.4,4.4-4.9   c2-0.4,4,0.6,5.5,1.5c1.5-0.9,3.5-1.9,5.5-1.5c2.1,0.4,4.4,2.3,4.4,5.5c0,6-8,10.6-9.6,11.5C12.2,21,12.1,21.1,12,21.1z"></path>
  <path d="M12.3,16c-0.3,0-0.6-0.2-0.7-0.4l-2.2-4.8l-0.7,1.7c-0.1,0.3-0.4,0.4-0.7,0.4H3c-0.4,0-0.8-0.3-0.8-0.8   s0.3-0.8,0.8-0.8h4.5l1.2-2.7c0.1-0.3,0.4-0.4,0.7-0.4l0,0c0.3,0,0.6,0.2,0.7,0.4l2.2,4.8l0.7-1.7c0.1-0.3,0.4-0.4,0.7-0.4h2.9   c0.4,0,0.8,0.3,0.8,0.8s-0.3,0.8-0.8,0.8h-2.4l-1.2,2.7C12.8,15.8,12.5,16,12.3,16z"></path>
</svg>
