<?xml version="1.0" encoding="UTF-8"?>
<svg xmlns="http://www.w3.org/2000/svg" width="24" height="25" fill="#4d83fa" viewBox="0 0 24 25" data-library="gosweb_med" data-icon="lungs" data-color="#4d83fa">
  <path d="M15.6,13.6l-2.7-1.4V3.3c0-0.4-0.3-0.8-0.8-0.8s-0.8,0.3-0.8,0.8v8.9l-2.7,1.4c-0.4,0.2-0.5,0.6-0.3,1   C8.5,14.9,8.8,15,9.1,15c0.1,0,0.2,0,0.3-0.1l2.7-1.4l2.7,1.4C15,15,15.1,15,15.2,15c0.3,0,0.5-0.1,0.7-0.4   C16.1,14.2,15.9,13.8,15.6,13.6z"></path>
  <path d="M5.8,21.2c-1.1,0-2.3-0.2-3.4-0.6c-0.7-0.2-1.1-0.9-1.1-1.7c0.2-8.5,4-11.7,6.3-11.7c1.5,0,2.6,1.2,2.6,2.6   c0,0.4-0.3,0.8-0.8,0.8s-0.8-0.3-0.8-0.8c0-0.6-0.5-1.1-1.1-1.1C5.8,8.7,3,12,2.8,19c0,0.1,0.1,0.2,0.1,0.2c1.8,0.7,3.9,0.7,5.7,0   c0.1,0,0.1-0.1,0.1-0.2v-2c0-0.4,0.3-0.8,0.8-0.8s0.8,0.3,0.8,0.8v2c0,0.7-0.4,1.4-1.1,1.6C8.1,21,7,21.2,5.8,21.2z"></path>
  <path d="M18.5,21.2c-1.1,0-2.3-0.2-3.4-0.6C14.4,20.4,14,19.7,14,19v-2c0-0.4,0.3-0.8,0.8-0.8s0.8,0.3,0.8,0.8v2   c0,0.1,0.1,0.2,0.1,0.2c1.8,0.7,3.9,0.7,5.7,0c0.1,0,0.1-0.1,0.1-0.2c-0.2-7-3-10.3-4.8-10.3c-0.6,0-1.1,0.5-1.1,1.1   c0,0.4-0.3,0.8-0.8,0.8S14,10.3,14,9.9c0-1.5,1.2-2.6,2.6-2.6c2.3,0,6.1,3.2,6.3,11.7c0,0.8-0.4,1.4-1.1,1.7   C20.8,21,19.6,21.2,18.5,21.2z"></path>
</svg>
