<?xml version="1.0" encoding="UTF-8"?>
<svg xmlns="http://www.w3.org/2000/svg" width="48" height="48" viewBox="0 0 48 48" fill="#4d83fa" data-library="gosweb_med" data-icon="Vaccinacia" data-color="#4d83fa">
  <path d="M43.8625 12.9525L35.3525 4.4425C34.7625 3.8525 33.8125 3.8525 33.2325 4.4425C32.6425 5.0325 32.6425 5.9825 33.2325 6.5625L36.5325 9.8625L32.1325 14.2625L26.4225 8.5525C25.8325 7.9625 24.8825 7.9625 24.3025 8.5525C23.7125 9.1425 23.7125 10.0925 24.3025 10.6725L25.2625 11.6325L7.6225 29.2625C7.2625 29.6225 7.1125 30.1325 7.2125 30.6325L8.6425 37.5325L4.4425 41.7325C3.8525 42.3225 3.8525 43.2725 4.4425 43.8525C4.7325 44.1425 5.1225 44.2925 5.5025 44.2925C5.8825 44.2925 6.2725 44.1425 6.5625 43.8525L10.7625 39.6525L17.6625 41.0825C17.7625 41.1025 17.8625 41.1125 17.9625 41.1125C18.3525 41.1125 18.7425 40.9525 19.0225 40.6725L36.6625 23.0325L37.6225 23.9925C37.9125 24.2825 38.3025 24.4325 38.6825 24.4325C39.0625 24.4325 39.4525 24.2825 39.7425 23.9925C40.3325 23.4025 40.3325 22.4525 39.7425 21.8725L34.0425 16.1625L38.4425 11.7625L41.7425 15.0625C42.0325 15.3525 42.4225 15.5025 42.8025 15.5025C43.1825 15.5025 43.5725 15.3525 43.8625 15.0625C44.4425 14.4825 44.4425 13.5325 43.8625 12.9525ZM17.4825 37.9825L11.5425 36.7525L10.3125 30.8125L13.1325 27.9925L15.7025 30.5625C15.9925 30.8525 16.3825 31.0025 16.7625 31.0025C17.1425 31.0025 17.5325 30.8525 17.8225 30.5625C18.4125 29.9725 18.4125 29.0225 17.8225 28.4425L15.2525 25.8725L18.3925 22.7325L20.9625 25.3025C21.2525 25.5925 21.6425 25.7425 22.0225 25.7425C22.4025 25.7425 22.7925 25.5925 23.0825 25.3025C23.6725 24.7125 23.6725 23.7625 23.0825 23.1825L20.5125 20.6125L27.3825 13.7425L34.5525 20.9125L17.4825 37.9825Z"></path>
</svg>
