<svg xmlns="http://www.w3.org/2000/svg" xmlns:xlink="http://www.w3.org/1999/xlink" preserveAspectRatio="xMidYMid" width="41" height="40" viewBox="0 0 41 40">
  <defs>
    <style>
      .cls-1 {
        fill: #fff;
        fill-rule: evenodd;
      }
    </style>
  </defs>
  <path d="M20.031,39.969 C8.986,39.969 0.031,31.014 0.031,19.969 C0.031,8.923 8.986,-0.031 20.031,-0.031 C31.077,-0.031 40.031,8.923 40.031,19.969 C40.031,31.014 31.077,39.969 20.031,39.969 ZM20.031,1.406 C9.779,1.406 1.469,9.717 1.469,19.969 C1.469,30.221 9.779,38.531 20.031,38.531 C30.283,38.531 38.594,30.221 38.594,19.969 C38.594,9.717 30.283,1.406 20.031,1.406 ZM25.257,27.749 C24.840,27.835 24.404,27.614 24.404,27.614 L20.239,24.518 L18.273,27.127 C18.273,27.127 18.060,27.281 17.887,27.129 C17.874,27.117 17.867,27.075 17.864,27.020 C17.774,26.995 17.643,26.913 17.545,26.787 L18.021,26.994 L17.964,23.241 C18.000,23.021 18.030,22.839 18.044,22.761 L18.008,22.734 L18.024,22.550 C18.024,22.550 25.890,15.615 25.863,15.402 C25.837,15.189 25.497,15.091 25.497,15.091 L15.363,21.514 L15.606,22.103 C15.471,21.783 15.384,21.576 15.384,21.576 L11.239,20.187 C11.239,20.187 10.082,19.543 10.997,18.989 C11.911,18.434 27.422,12.645 27.422,12.645 C27.422,12.645 28.361,12.346 28.650,12.714 C28.940,13.082 25.874,27.111 25.874,27.111 C25.874,27.111 25.675,27.664 25.257,27.749 ZM17.443,26.633 C17.429,26.569 17.349,26.353 17.228,26.044 L17.517,26.745 C17.493,26.705 17.453,26.685 17.443,26.633 ZM15.606,22.103 C16.003,23.049 16.834,25.037 17.228,26.044 L15.606,22.103 Z" class="cls-1"/>
</svg>
