<svg xmlns="http://www.w3.org/2000/svg" xmlns:xlink="http://www.w3.org/1999/xlink" preserveAspectRatio="xMidYMid" width="40" height="40" viewBox="0 0 40 40">
  <defs>
    <style>
      .cls-1 {
        fill: #f8f9fb;
        fill-rule: evenodd;
      }
    </style>
  </defs>
  <path d="M20.031,39.969 C8.986,39.969 0.031,31.014 0.031,19.969 C0.031,8.923 8.986,-0.031 20.031,-0.031 C31.077,-0.031 40.031,8.923 40.031,19.969 C40.031,31.014 31.077,39.969 20.031,39.969 ZM20.031,1.406 C9.779,1.406 1.469,9.717 1.469,19.969 C1.469,30.221 9.779,38.531 20.031,38.531 C30.283,38.531 38.594,30.221 38.594,19.969 C38.594,9.717 30.283,1.406 20.031,1.406 ZM28.056,24.497 C28.409,24.976 28.620,25.776 28.373,25.929 C28.127,26.083 25.608,25.929 25.608,25.929 C25.608,25.929 25.100,25.900 24.764,25.556 C24.427,25.212 22.749,23.480 22.503,23.282 C22.256,23.084 21.399,22.705 21.210,23.052 C21.020,23.398 21.028,25.249 21.028,25.249 C21.028,25.249 20.965,25.748 20.629,25.844 C20.294,25.940 18.150,26.905 14.912,23.596 C13.647,22.305 12.790,21.092 12.182,20.004 C11.176,18.202 10.895,16.506 10.895,16.506 C10.895,16.506 10.375,14.984 11.128,14.990 C11.882,14.996 12.214,14.990 12.214,14.990 L13.296,14.990 C13.296,14.990 13.902,14.969 14.011,15.339 C14.121,15.709 14.693,17.622 15.585,19.044 C16.478,20.465 17.355,21.311 17.355,21.311 C17.355,21.311 17.533,21.436 17.699,21.427 C17.820,21.421 17.934,21.301 17.969,21.222 C18.050,21.035 17.969,17.213 17.969,17.213 C17.969,17.213 17.664,15.990 17.470,15.788 C17.276,15.586 17.061,15.020 17.352,15.012 C17.643,15.005 20.683,15.012 20.683,15.012 C20.683,15.012 21.009,15.061 21.009,15.356 C21.009,15.652 21.009,20.243 21.009,20.243 C21.009,20.243 21.048,20.508 21.333,20.528 C21.618,20.548 22.428,19.839 23.291,18.501 C24.154,17.163 24.719,15.490 24.719,15.490 C24.719,15.490 24.963,15.017 25.276,15.003 C25.590,14.990 27.743,15.004 27.743,15.004 C27.743,15.004 28.208,15.059 28.061,15.543 C27.914,16.027 27.064,18.279 26.561,18.985 C26.058,19.691 25.369,20.707 25.369,20.707 C25.369,20.707 25.166,21.188 25.347,21.418 C25.529,21.647 27.702,24.018 28.056,24.497 Z" class="cls-1"/>
</svg>
